<svg xmlns="http://www.w3.org/2000/svg" viewBox="0 0 32 32" fill="none">
  <!-- Enhanced red background with subtle gradient effect -->
  <circle cx="16" cy="16" r="16" fill="#DC2626"/>
  <circle cx="16" cy="16" r="15" fill="none" stroke="#EF4444" stroke-width="1" opacity="0.6"/>
  
  <!-- High contrast white cake base -->
  <rect x="6" y="18" width="20" height="8" rx="2" fill="#FFFFFF" stroke="#DC2626" stroke-width="0.5"/>
  
  <!-- Vibrant pink cake middle layer -->
  <rect x="8" y="14" width="16" height="6" rx="1" fill="#FDE68A" stroke="#DC2626" stroke-width="0.3"/>
  
  <!-- Bold red cake top layer -->
  <rect x="10" y="11" width="12" height="5" rx="1" fill="#EF4444" stroke="#FFFFFF" stroke-width="0.3"/>
  
  <!-- Enhanced golden candle with shadow -->
  <rect x="15" y="7" width="2" height="6" fill="#F59E0B" stroke="#DC2626" stroke-width="0.2"/>
  
  <!-- Brighter flame with glow effect -->
  <ellipse cx="16" cy="6" rx="1.2" ry="2.2" fill="#FDE047"/>
  <ellipse cx="16" cy="6" rx="0.8" ry="1.5" fill="#FBBF24"/>
  
  <!-- Prominent white cherry -->
  <circle cx="16" cy="13" r="1.5" fill="#FFFFFF" stroke="#DC2626" stroke-width="0.3"/>
  <circle cx="16" cy="13" r="0.8" fill="#FEE2E2"/>
  
  <!-- Enhanced decorative elements -->
  <circle cx="12" cy="16" r="0.8" fill="#FFFFFF" stroke="#DC2626" stroke-width="0.2"/>
  <circle cx="20" cy="16" r="0.8" fill="#FFFFFF" stroke="#DC2626" stroke-width="0.2"/>
  <circle cx="14" cy="21" r="0.7" fill="#FEE2E2" stroke="#DC2626" stroke-width="0.2"/>
  <circle cx="18" cy="21" r="0.7" fill="#FEE2E2" stroke="#DC2626" stroke-width="0.2"/>
  
  <!-- More visible sparkles -->
  <circle cx="23" cy="9" r="1" fill="#FFFFFF" opacity="0.9"/>
  <circle cx="9" cy="7" r="0.8" fill="#FFFFFF" opacity="0.8"/>
  <circle cx="25" cy="22" r="0.9" fill="#FFFFFF" opacity="0.85"/>
  <circle cx="7" cy="24" r="0.6" fill="#FFFFFF" opacity="0.7"/>
</svg>
